<?xml version="1.0" encoding="UTF-8" standalone="no"?>
<!-- Created with Inkscape (http://www.inkscape.org/) -->

<svg
   width="30.0mm"
   height="30.0mm"
   viewBox="0 0 30.0 30.0"
   version="1.1"
   id="svg917"
   sodipodi:docname="bcm-logo-kicad-export.svg"
   inkscape:version="1.1 (c4e8f9e, 2021-05-24)"
   xmlns:inkscape="http://www.inkscape.org/namespaces/inkscape"
   xmlns:sodipodi="http://sodipodi.sourceforge.net/DTD/sodipodi-0.dtd"
   xmlns="http://www.w3.org/2000/svg"
   xmlns:svg="http://www.w3.org/2000/svg">
  <sodipodi:namedview
     id="namedview919"
     pagecolor="#ffffff"
     bordercolor="#666666"
     borderopacity="1.0"
     inkscape:pageshadow="2"
     inkscape:pageopacity="0.0"
     inkscape:pagecheckerboard="0"
     inkscape:document-units="mm"
     showgrid="false"
     inkscape:zoom="17.597674"
     inkscape:cx="33.186205"
     inkscape:cy="35.8286"
     inkscape:window-width="1756"
     inkscape:window-height="1145"
     inkscape:window-x="476"
     inkscape:window-y="91"
     inkscape:window-maximized="0"
     inkscape:current-layer="g986" />
  <defs
     id="defs914" />
  <g
     inkscape:label="[fixed] BG"
     inkscape:groupmode="layer"
     id="g986"
     style="display:inline"
     sodipodi:insensitive="true">
    <rect
       x="0"
       y="0"
       width="30"
       height="30"
       style="fill:#ffffff;fill-opacity:1;stroke:none"
       id="rect984" />
  </g>
  <g
     inkscape:label="F.SilkS"
     inkscape:groupmode="layer"
     id="g994"
     style="display:inline"
     sodipodi:insensitive="true">
    <path
       id="path1920"
       style="display:inline;fill:#000000;stroke:none;stroke-width:0.377953;stroke-linecap:round;stroke-linejoin:bevel;paint-order:stroke fill markers"
       d="m 33.648438,27.316406 -1.69336,0.0332 -1.607422,0.191407 -0.847656,0.11914 -0.478516,0.0332 -0.736328,0.03125 -0.248047,0.01563 -0.05469,0.152344 0.04687,0.59961 -0.01563,0.710937 0.167969,1.287109 0.111328,0.671875 0.01758,0.566407 0.01563,0.304687 0.08789,0.175781 0.310547,0.08789 2.597657,-0.02344 2.359375,-0.160157 0.726562,-0.08008 0.359375,-0.136719 L 35,31.753906 35.08789,31.617188 35.10352,31.25 l -0.07227,-1.134766 -0.103516,-1.015625 -0.167968,-1.078125 -0.03125,-0.519531 -0.07227,-0.113281 -0.121094,-0.0625 z"
       transform="scale(0.26458333)" />
    <path
       id="path1931"
       style="display:inline;fill:#000000;stroke:none;stroke-width:0.377953;stroke-linecap:round;stroke-linejoin:bevel;paint-order:stroke fill markers"
       d="m 33.632812,21.402344 -2.214843,0.05664 -0.998047,0.01563 -1.367188,0.05664 -0.576172,0.111328 -0.382812,0.0957 -0.263672,0.07227 -0.136719,0.06445 -0.0625,0.04687 -0.06445,0.08008 0.144532,2.814453 0.0078,0.75 0.08008,0.664063 0.0957,0.136719 0.214844,0.142578 0.335937,0.04102 0.767579,-0.0332 0.423828,-0.08008 1.574219,-0.08789 1.40625,-0.167968 1.255859,-0.214844 0.591797,-0.128906 0.199218,-0.08789 0.111329,-0.150391 0.06445,-0.183593 -0.01563,-0.304688 -0.144531,-1.582031 -0.111329,-0.568359 -0.08789,-0.447266 -0.105451,-0.47071 -0.142578,-0.273438 -0.128906,-0.166015 -0.175782,-0.121094 z"
       transform="scale(0.26458333)" />
    <path
       id="path1934"
       style="display:inline;fill:#000000;stroke:none;stroke-width:0.377953;stroke-linecap:round;stroke-linejoin:bevel;paint-order:stroke fill markers"
       d="M 37.5625,10.101562 A 28.346457,28.346457 0 0 0 9.2167969,38.449219 28.346457,28.346457 0 0 0 37.5625,66.794922 28.346457,28.346457 0 0 0 65.908203,38.449219 28.346457,28.346457 0 0 0 37.5625,10.101562 Z m -3.388672,9.589844 h 0.519531 l 0.259766,0.05664 0.294922,0.158203 0.191406,0.169922 0.191406,0.28125 0.136719,0.408203 0.05664,0.462891 -0.01172,0.65625 0.06836,0.970703 0.0332,1.289062 0.226563,2.125 0.283203,2.826172 0.236328,1.931641 0.181641,1.142578 0.101562,0.486328 -0.02344,0.316406 -0.101563,0.203125 -0.226562,0.158203 -0.292969,0.101563 -0.509766,0.02344 -2.300781,0.05273 -2.269531,0.04883 -1.957031,0.0625 -0.839844,-0.01563 -0.798828,0.03125 -0.208985,-0.04687 -0.255859,-0.136719 -0.134765,-0.134766 -0.08789,-0.152343 -0.103516,-0.191407 -0.05664,-0.248046 -0.0332,-0.703125 -0.02344,-2.421875 -0.01563,-2.166016 -0.06445,-1.462891 -0.111328,-1.558593 -0.05664,-1.638672 -0.01563,-1.447266 -0.08789,-0.294922 -0.0078,-0.232422 0.08789,-0.335937 0.11914,-0.119141 0.160156,-0.126953 0.05469,-0.05469 0.373047,-0.06836 0.441406,0.02344 0.53125,0.0332 0.248047,0.05664 0.767578,-0.01172 0.396484,0.02344 0.757813,-0.08008 0.621094,-0.07813 2.689453,-0.294922 z m 5.539063,0.441406 0.710937,0.08984 5.347656,0.179688 1.015625,-0.191406 h 1.164063 l 0.408203,0.134765 0.169922,0.113281 0.158203,0.148438 0.06641,0.224609 0.01172,0.181641 -0.08984,0.271484 -0.136719,0.214844 -0.40625,0.337891 -0.125,0.05664 -0.58789,0.03516 -0.212891,-0.05664 -0.18164,-0.06836 -0.453125,-0.113282 -0.212891,-0.05664 -4.455078,0.01172 -0.53125,-0.07813 -0.167969,-0.04687 -0.351562,0.02344 -0.179688,0.06836 -0.136719,0.134766 -0.04492,0.193359 -0.01172,0.191406 0.01172,0.47461 0.06836,0.916016 0.214844,2.429687 0.0332,1.841797 -0.06836,0.396484 0.02344,2.25 0.06836,0.269532 0.158203,0.363281 0.214844,0.134765 0.259766,0.08008 1.074218,0.02148 2.384766,0.226562 1.603516,0.01172 1.097656,-0.203125 h 0.599609 l 0.22461,0.06641 0.203125,0.113282 0.158203,0.146484 0.113281,0.205078 0.03516,0.271485 -0.05664,0.21289 -0.08008,0.158203 -0.134766,0.181641 -0.169922,0.136719 -0.18164,0.123047 -0.236329,0.08008 -0.429687,0.0098 -1.232422,-0.21289 -3.876953,-0.0918 -0.677735,0.02344 -1.492187,0.203125 -0.689453,-0.01172 -0.226563,-0.134766 -0.113281,-0.238281 -0.111328,-0.328125 -0.103516,-0.451172 -0.05664,-0.994141 0.08008,-0.238281 -0.04492,-1.853516 -0.03516,-1.492187 -0.0332,-1.978516 -0.158203,-1.875 -0.169922,-1.808594 -0.06836,-0.611328 0.04687,-0.179687 0.146485,-0.181641 0.191406,-0.101562 0.259766,-0.19336 z m 9.097656,17.589844 0.287109,0.07227 0.232422,0.113281 0.103516,0.134766 0.0957,0.208984 v 0.253906 l -0.03906,0.392579 -0.08008,0.392578 -0.08789,0.478515 -0.01563,0.22461 v 2.636718 l 0.103515,1.982422 0.222656,3.029297 0.185547,2.525391 0.263672,2.83789 0.03125,0.703125 -0.02344,0.431641 -0.0332,0.255859 -0.134766,0.214844 -0.121094,0.08789 -0.11914,0.113281 -0.144532,0.01563 h -0.191406 l -0.119141,-0.04102 -0.175781,-0.111328 -0.0957,-0.142578 L 48.83398,54.34766 48.7539,54.091801 48.63476,53.525395 48.55468,52.654301 48.410148,51.287113 48.29882,49.927738 48.21874,48.03516 l -0.03906,-1.40039 -0.0332,-3.011719 -0.03125,-1.878906 -0.04883,-1.023438 -0.0625,-0.375 -0.06445,-0.375 -0.103515,-0.248047 -0.121094,-0.201172 -0.111328,-0.126953 -0.160157,-0.06445 -0.271484,-0.03125 -1.662109,0.0078 -2.742188,0.111328 -2.021484,0.103515 -1.263672,0.07227 -0.615234,0.04883 -0.470704,0.08008 -0.289062,0.07031 -0.111328,0.175781 -0.08789,0.431641 0.06445,2.382812 0.08008,3.373047 0.160157,3.445312 0.111328,1.900391 0.07227,0.824219 0.06445,0.919922 -0.01758,0.630859 -0.08789,0.335938 -0.134766,0.199218 -0.199219,0.160157 -0.273437,0.183593 -0.279297,0.05664 -0.207031,-0.04883 -0.271485,-0.199219 -0.105468,-0.240234 -0.119141,-0.25586 0.01563,-2.972656 -0.03125,-3.246094 -0.02344,-1.830078 -0.04883,-2.765625 -0.04883,-1.957031 -0.126953,-0.966797 -0.07227,-0.240234 -0.126954,-0.167969 -0.224609,-0.103516 -0.351563,-0.04102 -1.230468,0.04102 -3.308594,0.167969 -1.623047,0.07813 -1.039062,0.05664 -0.542969,0.02344 -0.19336,0.06445 -0.11914,0.08789 -0.06445,0.136719 -0.03906,0.207031 0.03906,0.263672 0.191406,1.765625 0.08008,1.232422 0.04883,1.253906 -0.01563,1.863281 -0.0078,3.179688 0.01563,2.158203 0.03906,1.822266 -0.05469,0.351562 -0.160156,0.304688 -0.121094,0.11914 -0.126953,0.111328 -0.167969,0.08984 -0.191406,0.03125 -0.144532,-0.0078 -0.160156,-0.0332 -0.103516,-0.0957 -0.111328,-0.142578 -0.08008,-0.152344 -0.07227,-0.248047 -0.0078,-0.447265 0.08789,-0.751953 -0.0078,-1.566406 v -1.470704 l -0.08008,-1.269531 -0.183594,-2.40625 -0.03125,-1.335937 0.03906,-1.830078 -0.0078,-1.876954 0.0078,-0.792968 -0.0957,-0.501954 -0.08789,-0.457031 -0.08008,-0.263672 -0.02344,-0.167968 v -0.447266 l 0.04687,-0.287109 0.113282,-0.167969 0.207031,-0.144531 0.191406,-0.08008 0.263672,-0.04688 h 0.255859 l 0.0957,0.05664 1.080078,0.191406 1.134765,0.142579 0.814453,0.02539 h 3.158204 l 3.972656,-0.224609 2.93164,-0.199219 3.134766,-0.201172 3.003906,-0.183594 1.416016,-0.07031 z"
       transform="scale(0.26458333)" />
  </g>
</svg>
